<?xml version="1.0" encoding="UTF-8"?>
<!DOCTYPE svg PUBLIC "-//W3C//DTD SVG 1.1//EN" "http://www.w3.org/Graphics/SVG/1.1/DTD/svg11.dtd">
<svg xmlns="http://www.w3.org/2000/svg" version="1.1" width="1000px" height="1000px" style="shape-rendering:geometricPrecision; text-rendering:geometricPrecision; image-rendering:optimizeQuality; fill-rule:evenodd; clip-rule:evenodd" xmlns:xlink="http://www.w3.org/1999/xlink">
<g><path style="opacity:0.995" fill="#be4231" d="M 362.5,148.5 C 520.167,148.5 677.833,148.5 835.5,148.5C 829.038,180.141 822.705,211.808 816.5,243.5C 761.496,243.167 706.496,243.5 651.5,244.5C 616.91,416.448 582.577,588.448 548.5,760.5C 603.167,760.5 657.833,760.5 712.5,760.5C 706.5,792.165 700.5,823.832 694.5,855.5C 536.832,855.833 379.165,855.5 221.5,854.5C 227.962,823.525 234.295,792.525 240.5,761.5C 295.734,760.831 350.901,760.165 406,759.5C 440.362,587.524 474.529,415.524 508.5,243.5C 453.833,243.5 399.167,243.5 344.5,243.5C 350.499,211.839 356.499,180.172 362.5,148.5 Z"/></g>
</svg>
